HIERARCHY
ROOT hip
{
  OFFSET 0 0 0
  CHANNELS 6 Xposition Yposition Zposition Zrotation Yrotation Xrotation
  JOINT abdomen
  {
    OFFSET 0 20.6881 -0.73152
    CHANNELS 3 Zrotation Xrotation Yrotation
    JOINT chest
    {
      OFFSET 0 11.7043 -0.48768
      CHANNELS 3 Zrotation Xrotation Yrotation
      JOINT neck
      {
        OFFSET 0 22.1894 -2.19456
        CHANNELS 3 Zrotation Xrotation Yrotation
        JOINT head
        {
          OFFSET -0.24384 7.07133 1.2192
          CHANNELS 3 Zrotation Xrotation Yrotation
          JOINT leftEye
          {
            OFFSET 4.14528 8.04674 8.04672
            CHANNELS 3 Zrotation Xrotation Yrotation
            End Site
            {
              OFFSET 1 0 0
            }
          }
          JOINT rightEye
          {
            OFFSET -3.6576 8.04674 8.04672
            CHANNELS 3 Zrotation Xrotation Yrotation
            End Site
            {
              OFFSET 1 0 0
            }
          }
        }
      }
      JOINT rCollar
      {
        OFFSET -2.68224 19.2634 -4.8768
        CHANNELS 3 Zrotation Xrotation Yrotation
        JOINT rShldr
        {
          OFFSET -8.77824 -1.95073 1.46304
          CHANNELS 3 Zrotation Xrotation Yrotation
          JOINT rForeArm
          {
            OFFSET -28.1742 -1.7115 0.48768
            CHANNELS 3 Zrotation Xrotation Yrotation
            JOINT rHand
            {
              OFFSET -22.5879 0.773209 7.07136
              CHANNELS 3 Zrotation Xrotation Yrotation
              JOINT rThumb1
              {
                OFFSET -1.2192 -0.487915 3.41376
                CHANNELS 3 Zrotation Xrotation Yrotation
                JOINT rThumb2
                {
                  OFFSET -3.37035 -0.52449 3.41376
                  CHANNELS 3 Zrotation Xrotation Yrotation
                  End Site
                  {
                    OFFSET -1.78271 -1.18214 1.43049
                  }
                }
              }
              JOINT rIndex1
              {
                OFFSET -7.75947 0.938293 5.60832
                CHANNELS 3 Zrotation Xrotation Yrotation
                JOINT rIndex2
                {
                  OFFSET -2.54057 -0.884171 1.56538
                  CHANNELS 3 Zrotation Xrotation Yrotation
                  End Site
                  {
                    OFFSET -1.62519 -0.234802 1.16502
                  }
                }
              }
              JOINT rMid1
              {
                OFFSET -8.24714 1.18213 3.41376
                CHANNELS 3 Zrotation Xrotation Yrotation
                JOINT rMid2
                {
                  OFFSET -3.10165 -0.590103 1.0647
                  CHANNELS 3 Zrotation Xrotation Yrotation
                  End Site
                  {
                    OFFSET -2.48547 -0.328903 0.83742
                  }
                }
              }
              JOINT rRing1
              {
                OFFSET -8.82822 0.546677 1.51678
                CHANNELS 3 Zrotation Xrotation Yrotation
                JOINT rRing2
                {
                  OFFSET -2.60934 -0.819778 -0.0198488
                  CHANNELS 3 Zrotation Xrotation Yrotation
                  End Site
                  {
                    OFFSET -2.33842 -0.294052 0.168128
                  }
                }
              }
              JOINT rPinky1
              {
                OFFSET -8.27202 -0.0477905 -0.4584
                CHANNELS 3 Zrotation Xrotation Yrotation
                JOINT rPinky2
                {
                  OFFSET -1.82734 -0.647385 -0.700984
                  CHANNELS 3 Zrotation Xrotation Yrotation
                  End Site
                  {
                    OFFSET -1.69225 -0.51767 -0.607171
                  }
                }
              }
            }
          }
        }
      }
      JOINT lCollar
      {
        OFFSET 2.68224 19.2634 -4.8768
        CHANNELS 3 Zrotation Xrotation Yrotation
        JOINT lShldr
        {
          OFFSET 8.77824 -1.95073 1.46304
          CHANNELS 3 Zrotation Xrotation Yrotation
          JOINT lForeArm
          {
            OFFSET 28.1742 -1.7115 0.48768
            CHANNELS 3 Zrotation Xrotation Yrotation
            JOINT lHand
            {
              OFFSET 22.5879 0.773209 7.07136
              CHANNELS 3 Zrotation Xrotation Yrotation
              JOINT lThumb1
              {
                OFFSET 1.2192 -0.487915 3.41376
                CHANNELS 3 Zrotation Xrotation Yrotation
                JOINT lThumb2
                {
                  OFFSET 3.37035 -0.52449 3.41376
                  CHANNELS 3 Zrotation Xrotation Yrotation
                  End Site
                  {
                    OFFSET 1.78271 -1.18214 1.43049
                  }
                }
              }
              JOINT lIndex1
              {
                OFFSET 7.75947 0.938293 5.60832
                CHANNELS 3 Zrotation Xrotation Yrotation
                JOINT lIndex2
                {
                  OFFSET 2.54057 -0.884171 1.56538
                  CHANNELS 3 Zrotation Xrotation Yrotation
                  End Site
                  {
                    OFFSET 1.62519 -0.234802 1.16502
                  }
                }
              }
              JOINT lMid1
              {
                OFFSET 8.24714 1.18213 3.41376
                CHANNELS 3 Zrotation Xrotation Yrotation
                JOINT lMid2
                {
                  OFFSET 3.10165 -0.590103 1.0647
                  CHANNELS 3 Zrotation Xrotation Yrotation
                  End Site
                  {
                    OFFSET 2.48547 -0.328903 0.83742
                  }
                }
              }
              JOINT lRing1
              {
                OFFSET 8.82822 0.546677 1.51678
                CHANNELS 3 Zrotation Xrotation Yrotation
                JOINT lRing2
                {
                  OFFSET 2.60934 -0.819778 -0.0198488
                  CHANNELS 3 Zrotation Xrotation Yrotation
                  End Site
                  {
                    OFFSET 2.33842 -0.294052 0.168128
                  }
                }
              }
              JOINT lPinky1
              {
                OFFSET 8.27202 -0.0477905 -0.4584
                CHANNELS 3 Zrotation Xrotation Yrotation
                JOINT lPinky2
                {
                  OFFSET 1.82734 -0.647385 -0.700984
                  CHANNELS 3 Zrotation Xrotation Yrotation
                  End Site
                  {
                    OFFSET 1.69225 -0.51767 -0.607171
                  }
                }
              }
            }
          }
        }
      }
    }
  }
  JOINT rButtock
  {
    OFFSET -8.77824 4.35084 1.2192
    CHANNELS 3 Zrotation Xrotation Yrotation
    JOINT rThigh
    {
      OFFSET 0 -1.70687 -2.19456
      CHANNELS 3 Zrotation Xrotation Yrotation
      JOINT rShin
      {
        OFFSET 0 -36.8199 0.73152
        CHANNELS 3 Zrotation Xrotation Yrotation
        JOINT rFoot
        {
          OFFSET 0.73152 -45.1104 -5.12064
          CHANNELS 3 Zrotation Xrotation Yrotation
          End Site
          {
            OFFSET -1.1221 -3.69964 12.103
          }
        }
      }
    }
  }
  JOINT lButtock
  {
    OFFSET 8.77824 4.35084 1.2192
    CHANNELS 3 Zrotation Xrotation Yrotation
    JOINT lThigh
    {
      OFFSET 0 -1.70687 -2.19456
      CHANNELS 3 Zrotation Xrotation Yrotation
      JOINT lShin
      {
        OFFSET 0 -36.8199 0.73152
        CHANNELS 3 Zrotation Xrotation Yrotation
        JOINT lFoot
        {
          OFFSET -0.73152 -45.1104 -5.12064
          CHANNELS 3 Zrotation Xrotation Yrotation
          End Site
          {
            OFFSET 1.1221 -3.69964 12.103
          }
        }
      }
    }
  }
}
MOTION
Frames:	4
Frame Time:	0.03333
0.5144999828189611 69.43960189819336 0.5739999935030937 349.3430024597252 -33.730701385905796 369.3910010323033 4.098939954897222 11.954500175000737 5.055569846746861 1.7175799866202903 -8.060230253677531 1.5216500338629506 -0.9016540193853237 11.457800280820946 7.810030179096209 3.0716799306141276 -23.4435007599503 16.19600069202811 -0.0 0.0 0.0 -0.0 0.0 0.0 3.429129909551112e-13 5.420220182452743e-13 7.418860001958507e-14 107.1529980765897 47.19410048536272 -55.30659961543741 -26.681700275642516 -44.81699999380693 93.08730265083729 -9.676800280209795 -62.72039771417649 -15.814900042003494 6.299900085043937e-10 -1.6547700443617968e-09 -3.8538900346093986e-10 1.099850021953817e-09 -2.826039918649546e-09 -6.303160153592437e-10 6.299980095872643e-10 -1.6547799835951764e-09 -3.8539700454381044e-10 7.730910121524428 5.474879855648998 0.41731399283890674 6.299890145810557e-10 -1.6547799835951764e-09 -3.853909913076158e-10 2.90554006136521 0.9651829962377875 0.10290200252939893 6.299939841977455e-10 -1.6547700443617968e-09 -3.8538999738427783e-10 10.278599710243157 0.7318009818271524 0.025912300303053633 6.299869770382129e-10 -1.6547700443617968e-09 -3.8538599684284254e-10 2.221669932038622 -0.7334870246959406 -0.20891999872313852 3.427469892569919e-13 5.420240080332068e-13 7.399759857735126e-14 -43.52650063693014 8.302390341832101 -33.685301118492724 13.286299978241304 -6.387379895271185 -24.139700234502406 1.0045499654579195 27.219900399219302 -4.145730165806395 1.285449998290281e-09 2.2131100575833545e-09 5.248629855294794e-10 2.2336600189496254e-09 3.696029961673655e-09 8.844540130073997e-10 1.2854399596645676e-09 2.213119996816734e-09 5.248789876952206e-10 -7.730910121524428 5.474879855648998 -0.41731399283890674 1.285449998290281e-09 2.2130999195653073e-09 5.248639794528174e-10 -2.90554006136521 0.9651829962377875 -0.10290200252939893 1.2854399596645676e-09 2.2131100575833545e-09 5.248639794528174e-10 -10.278599710243157 0.7318009818271524 -0.025912300303053633 1.285449998290281e-09 2.2131100575833545e-09 5.248549844466088e-10 -2.221669932038622 -0.7334870246959406 0.20891999872313852 -2.0321699793705798e-16 0.0 -3.882510030490358e-19 -10.241699613252162 -9.522920387077638 -9.033000309422734 -0.560277002521561 51.794099702677485 1.565169971541862 -13.138900227084198 -12.885500208876726 -30.62320095507636 2.0321699793705798e-16 0.0 3.882510030490358e-19 54.9352012491288 -49.89480167941536 36.81090155062269 1.0648199815809352 57.52060201980246 -0.7963350103438129 0.5414019881936423 6.007850188755671 -0.6944199968299073
0.9218799881637096 69.40919756889343 1.0590000078082085 349.1539974650126 -34.3651986390433 370.15100984162893 4.051769814715468 10.910100217882318 5.339990022843593 1.8879599092399046 -7.945029721815157 1.6105400367122007 -0.7176540058696164 11.487900070719546 7.936679815554816 3.0070400875261845 -23.435599938627888 16.416699472036854 -0.0 0.0 0.0 -0.0 0.0 0.0 -1.0223299872634957e-14 3.59658997663064e-13 1.24518997261492e-12 105.6439975530696 47.973599239485004 -54.15230106079984 -26.744300666932975 -44.665899133893326 92.78130334583155 -11.891600109160443 -65.87039899711633 -18.274000369639865 -2.1317800938236507e-09 7.20087996199922e-09 2.0335299767278964e-09 -3.766350037834137e-09 1.2336900092165454e-08 3.3898900440720715e-09 -2.1317699558056035e-09 7.2008696251965055e-09 2.0335200374945167e-09 7.730910121524428 5.474879855648998 0.41731399283890674 -2.1317800938236507e-09 7.2008696251965055e-09 2.0335299767278964e-09 2.90554006136521 0.9651829962377875 0.10290200252939893 -2.1317699558056035e-09 7.20087996199922e-09 2.0335299767278964e-09 10.278599710243157 0.7318009818271524 0.025912300303053633 -2.1317800938236507e-09 7.20087996199922e-09 2.0335299767278964e-09 2.221669932038622 -0.7334870246959406 -0.20891999872313852 -1.025690029309462e-14 3.5966800024017296e-13 1.2450400105487927e-12 -44.20269961004516 7.576540162319323 -33.49209897253515 13.039600375609615 -6.202470025852838 -23.646299321691735 1.1175300455098045 28.55590076879943 -4.386930185495755 -5.685470095483766e-09 -1.325109964647724e-08 -3.2163999302929457e-09 -9.879150316224633e-09 -2.2138899693481827e-08 -5.414220067599167e-09 -5.685470095483766e-09 -1.325109964647724e-08 -3.2163800518261865e-09 -7.730910121524428 5.474879855648998 -0.41731399283890674 -5.685470095483766e-09 -1.325109964647724e-08 -3.2163999302929457e-09 -2.90554006136521 0.9651829962377875 -0.10290200252939893 -5.685480034717146e-09 -1.325109964647724e-08 -3.2163899910595663e-09 -10.278599710243157 0.7318009818271524 -0.025912300303053633 -5.685470095483766e-09 -1.325109964647724e-08 -3.2163999302929457e-09 -2.221669932038622 -0.7334870246959406 0.20891999872313852 -2.0321699793705798e-16 0.0 -3.882510030490358e-19 -10.441100155881514 -9.037250394633773 -8.55606015251179 -0.4886360020909435 49.88409877298595 1.5329400163958644 -13.284400331878395 -13.581599791912222 -30.438198451217392 2.0321699793705798e-16 0.0 3.882510030490358e-19 56.9347015626096 -49.3842006427273 40.017101630053396 1.108659977655485 58.363898155867254 -0.8752379959660349 0.5324829884372221 4.922709860785419 -1.5722900168647773
1.245409995317459 69.35830116271973 1.5660000033676624 348.350002237432 -34.41629869931875 371.0860080974903 4.732329863615538 10.308599608625144 5.242159942701031 1.7986299995194235 -7.9627199117654905 1.5939400089864253 -0.4998970096807375 11.54149998023122 7.9687202329513465 2.9991700020550374 -23.704699146642636 16.475700353634718 -0.0 0.0 0.0 -0.0 0.0 0.0 -3.613099999342947e-14 2.888370096294783e-13 1.2018099749915544e-12 104.82600043769054 48.52430031679021 -53.49050012645522 -26.835400022535314 -44.44479908027084 92.32980052093703 -13.048899678164586 -67.19510052626197 -19.532599327998113 -2.256039991965743e-09 7.557210225182303e-09 2.122170047853609e-09 -3.9846000976454996e-09 1.2946599702383284e-08 3.5358198563976455e-09 -2.256030052732364e-09 7.557210225182303e-09 2.122149970602182e-09 7.730910121524428 5.474879855648998 0.41731399283890674 -2.256039991965743e-09 7.557210225182303e-09 2.122170047853609e-09 2.90554006136521 0.9651829962377875 0.10290200252939893 -2.2560199147143166e-09 7.557210225182303e-09 2.1221599098355617e-09 10.278599710243157 0.7318009818271524 0.025912300303053633 -2.256039991965743e-09 7.557210225182303e-09 2.1221599098355617e-09 2.221669932038622 -0.7334870246959406 -0.20891999872313852 -3.612339876087051e-14 2.888439981529483e-13 1.201650015454352e-12 -44.75800081975636 6.669429995725923 -33.424299099739024 12.696299699999141 -5.949890057232589 -22.964899159523753 1.2642399475607398 30.190699716452812 -4.689269789766839 -5.558730159828803e-09 -1.4116300370505067e-08 -3.387010051808006e-09 -9.664679948082856e-09 -2.3669999633810276e-08 -5.717819914718267e-09 -5.558730159828803e-09 -1.4116300370505067e-08 -3.386990173341247e-09 -7.730910121524428 5.474879855648998 -0.41731399283890674 -5.558730159828803e-09 -1.4116300370505067e-08 -3.387010051808006e-09 -2.90554006136521 0.9651829962377875 -0.10290200252939893 -5.558730159828803e-09 -1.4116300370505067e-08 -3.387000112574627e-09 -10.278599710243157 0.7318009818271524 -0.025912300303053633 -5.558719823026088e-09 -1.4116300370505067e-08 -3.387010051808006e-09 -2.221669932038622 -0.7334870246959406 0.20891999872313852 -2.0321699793705798e-16 0.0 -3.882510030490358e-19 -10.064800275069771 -8.140490099067058 -8.103469619991943 -0.4253029929707209 48.02530035640741 1.506870038107572 -13.268499651490606 -13.983200400956985 -30.241400210661816 2.0321699793705798e-16 0.0 3.882510030490358e-19 59.01629733481936 -49.14810149368747 42.67960157607816 1.1590800072216962 59.27320124007105 -0.9614980024588599 0.48766899671485775 3.9858700151690694 -2.584529921554485
1.5689000021666288 69.30500268936157 2.0049999933689833 347.29298948223754 -33.86369882942429 371.6770107059932 6.130650159843331 10.14879964902988 4.762669990795558 1.449369983858114 -8.113289724471128 1.4718199618862995 -0.24814800294212994 11.618699900872583 7.906119841660887 3.046510043192396 -24.251699968964985 16.373300450050593 -0.0 0.0 0.0 -0.0 0.0 0.0 2.651900058548335e-13 3.2955501071913796e-13 -5.5965600421663557e-14 104.72399839262556 48.855598642481674 -53.34759890864021 -26.950200134557594 -44.15040085157037 91.73959704456705 -12.633999837032162 -66.73620060649631 -19.082500106978028 2.5720599051159586e-10 -5.857639980893083e-10 -1.1947700237538286e-10 4.4510998053777895e-10 -9.969700111651897e-10 -1.9250800444014397e-10 2.572139915944664e-10 -5.857639980893083e-10 -1.1948799765230901e-10 7.730910121524428 5.474879855648998 0.41731399283890674 2.572080032063552e-10 -5.857710052488409e-10 -1.1947599602800317e-10 2.90554006136521 0.9651829962377875 0.10290200252939893 2.572240053720963e-10 -5.857669798593222e-10 -1.194779962987208e-10 10.278599710243157 0.7318009818271524 0.025912300303053633 2.57203008741582e-10 -5.857659859359843e-10 -1.1947599602800317e-10 2.221669932038622 -0.7334870246959406 -0.20891999872313852 2.65148001916894e-13 3.29552996665499e-13 -5.6156698926723334e-14 -45.197899153251036 5.584859988551367 -33.486901198576774 12.251200177451505 -5.626779847695497 -22.096199842388387 1.4564699655003421 32.12329832701334 -5.061369958012671 1.6656599654141265e-09 -3.8241600482052533e-10 1.3022500049308354e-11 2.877069930666952e-09 -8.970630238650605e-10 -2.6351398709615077e-11 1.6656599654141265e-09 -3.8241600482052533e-10 1.3031499714532514e-11 -7.730910121524428 5.474879855648998 -0.41731399283890674 1.66567000403984e-09 -3.824230119800579e-10 1.3023199678157963e-11 -2.90554006136521 0.9651829962377875 -0.10290200252939893 1.6656599654141265e-09 -3.8241501089718735e-10 1.3030199849167092e-11 -10.278599710243157 0.7318009818271524 -0.025912300303053633 1.66567000403984e-09 -3.8241501089718735e-10 1.3025599847718607e-11 -2.221669932038622 -0.7334870246959406 0.20891999872313852 -2.0321699793705798e-16 0.0 -3.882510030490358e-19 -9.121260013877638 -6.83171998616048 -7.678999830058684 -0.36940200339983914 46.21780007559026 1.48606005253213 -13.093900379511215 -14.088299936810555 -30.02999902566075 2.0321699793705798e-16 0.0 3.882510030490358e-19 61.24119730600517 -49.22160115934598 44.862198770639495 1.2173800473776921 60.24879814035899 -1.0563500134015904 0.40826999528459 3.1975699219709828 -3.7318100299330434
